<svg width="830" height="250" viewBox="0 0 830 250" fill="none" xmlns="http://www.w3.org/2000/svg">
<mask id="mask0_104_9" style="mask-type:alpha" maskUnits="userSpaceOnUse" x="0" y="0" width="830" height="250">
<path d="M0.311796 151.858L142.802 4.64396H192.222V151.858H244.76V194.892H192.222V246.594H142.802V194.892H0L0.311796 151.858ZM142.802 151.858V66.7183L59.553 151.858H142.802Z" fill="black"/>
<path d="M282.799 125.077C282.799 105.573 285.761 88.0805 291.685 72.6006C297.609 57.1207 306.027 44.0144 316.94 33.2817C327.853 22.4458 341.104 14.1899 356.694 8.51393C372.284 2.83798 389.745 0 409.076 0C428.407 0 445.868 2.83798 461.458 8.51393C477.047 14.1899 490.299 22.4458 501.211 33.2817C512.124 44.0144 520.543 57.1207 526.467 72.6006C532.391 88.0805 535.353 105.573 535.353 125.077C535.353 144.582 532.391 162.074 526.467 177.554C520.543 193.034 512.124 206.14 501.211 216.873C490.299 227.606 477.047 235.81 461.458 241.486C445.868 247.162 428.407 250 409.076 250C389.745 250 372.284 247.162 356.694 241.486C341.104 235.81 327.853 227.606 316.94 216.873C306.027 206.14 297.609 193.034 291.685 177.554C285.761 162.074 282.799 144.582 282.799 125.077ZM332.218 124.923C332.218 138.132 333.985 149.794 337.519 159.907C341.156 170.021 346.301 178.535 352.953 185.449C359.604 192.26 367.659 197.472 377.117 201.084C386.575 204.592 397.228 206.347 409.076 206.347C420.924 206.347 431.577 204.592 441.035 201.084C450.493 197.472 458.547 192.26 465.199 185.449C471.851 178.535 476.943 170.021 480.477 159.907C484.115 149.794 485.934 138.132 485.934 124.923C485.934 111.816 484.115 100.258 480.477 90.2477C476.943 80.1342 471.851 71.6202 465.199 64.7059C458.547 57.7915 450.493 52.58 441.035 49.0712C431.577 45.4592 420.924 43.6533 409.076 43.6533C397.228 43.6533 386.575 45.4592 377.117 49.0712C367.659 52.58 359.604 57.7915 352.953 64.7059C346.301 71.6202 341.156 80.1342 337.519 90.2477C333.985 100.258 332.218 111.816 332.218 124.923Z" fill="black"/>
<path d="M585.552 151.858L728.043 4.64396H777.462V151.858H830V194.892H777.462V246.594H728.043V194.892H585.24L585.552 151.858ZM728.043 151.858V66.7183L644.793 151.858H728.043Z" fill="black"/>
</mask>
<g mask="url(#mask0_104_9)">
<rect y="125" width="830" height="125" fill="#7AAAF5"/>
<rect width="830" height="125" fill="#11111E"/>
</g>
</svg>
