<svg width="1907" height="140" viewBox="0 0 1907 140" fill="none" xmlns="http://www.w3.org/2000/svg">
<mask id="mask0_105_16" style="mask-type:alpha" maskUnits="userSpaceOnUse" x="0" y="0" width="1907" height="140">
<path d="M0 69.1283C0 59.423 1.84795 50.3861 5.54386 42.0174C9.23976 33.5907 14.5783 26.2972 21.5594 20.137C28.5993 13.9186 37.1644 9.03694 47.2548 5.49191C57.4038 1.94687 68.8729 0.174346 81.6619 0.174346C92.8669 0.174346 103.133 1.3076 112.461 3.5741C121.848 5.78248 130.559 9.18223 138.596 13.7733L125.749 34.6949C123.343 33.1258 120.557 31.731 117.389 30.5106C114.28 29.2902 110.936 28.2731 107.357 27.4595C103.837 26.5878 100.171 25.9195 96.3575 25.4545C92.6029 24.9896 88.8777 24.7572 85.1818 24.7572C76.2647 24.7572 68.3156 25.8614 61.3344 28.0697C54.3533 30.22 48.4574 33.2711 43.6469 37.2229C38.895 41.1166 35.2578 45.7949 32.7352 51.2578C30.2712 56.6625 29.0392 62.6193 29.0392 69.1283C29.0392 75.8697 30.3299 82.0589 32.9111 87.6961C35.4924 93.3333 39.2176 98.215 44.0869 102.341C49.0147 106.409 54.9986 109.606 62.0384 111.93C69.1369 114.197 77.1447 115.33 86.0618 115.33C90.1097 115.33 94.1282 115.039 98.1175 114.458C102.107 113.877 105.949 113.093 109.645 112.105C113.4 111.059 117.008 109.838 120.469 108.443C123.93 106.99 127.157 105.421 130.149 103.736L142.996 124.658C135.487 129.423 126.805 133.171 116.949 135.903C107.093 138.576 96.6215 139.913 85.5338 139.913C71.3955 139.913 58.9878 138.111 48.3107 134.508C37.6337 130.847 28.7166 125.849 21.5594 119.514C14.4023 113.122 9.0051 105.625 5.36786 97.0237C1.78929 88.3645 0 79.066 0 69.1283Z" fill="black"/>
<path d="M165.7 69.5641C165.7 59.2777 167.606 49.863 171.42 41.32C175.233 32.7771 180.571 25.4545 187.435 19.3524C194.358 13.1922 202.629 8.42673 212.25 5.05604C221.93 1.68535 232.637 0 244.37 0C256.044 0 266.721 1.68535 276.401 5.05604C286.081 8.42673 294.352 13.1922 301.216 19.3524C308.139 25.4545 313.507 32.7771 317.32 41.32C321.133 49.863 323.04 59.2777 323.04 69.5641C323.04 79.9087 321.133 89.4105 317.32 98.0697C313.507 106.671 308.139 114.081 301.216 120.299C294.352 126.517 286.081 131.37 276.401 134.857C266.721 138.286 256.044 140 244.37 140C232.637 140 221.93 138.286 212.25 134.857C202.629 131.37 194.358 126.517 187.435 120.299C180.571 114.081 175.233 106.671 171.42 98.0697C167.606 89.4105 165.7 79.9087 165.7 69.5641ZM193.595 69.5641C193.595 76.5961 194.856 82.9307 197.379 88.5679C199.96 94.2051 203.509 99.0286 208.027 103.039C212.602 106.99 217.97 110.042 224.13 112.192C230.349 114.342 237.095 115.417 244.37 115.417C251.644 115.417 258.361 114.342 264.521 112.192C270.74 110.042 276.108 106.99 280.625 103.039C285.142 99.0286 288.691 94.2051 291.272 88.5679C293.854 82.9307 295.144 76.5961 295.144 69.5641C295.144 62.5322 293.854 56.2266 291.272 50.6476C288.691 45.0685 285.142 40.3611 280.625 36.5255C276.108 32.6318 270.74 29.6679 264.521 27.6339C258.361 25.5998 251.644 24.5828 244.37 24.5828C237.095 24.5828 230.349 25.5998 224.13 27.6339C217.97 29.6679 212.602 32.6318 208.027 36.5255C203.509 40.3611 199.96 45.0685 197.379 50.6476C194.856 56.2266 193.595 62.5322 193.595 69.5641Z" fill="black"/>
<path d="M354.103 1.83064H381.998L431.981 51.5193L481.964 1.83064H509.859V138.082H481.964V40.0996L431.981 87.7833L381.998 40.0996V138.082H354.103V1.83064Z" fill="black"/>
<path d="M549.106 1.83064H577.001L626.984 51.5193L676.966 1.83064H704.862V138.082H676.966V40.0996L626.984 87.7833L577.001 40.0996V138.082H549.106V1.83064Z" fill="black"/>
<path d="M740.501 1.83064H768.572V138.082H740.501V1.83064Z" fill="black"/>
<path d="M804.035 1.83064H831.93L917.64 46.2889V1.83064H945.535V138.082H917.64V75.5791L831.93 31.3823V138.082H804.035V1.83064Z" fill="black"/>
<path d="M975.015 68.6924C975.015 59.1034 976.833 50.1536 980.471 41.8431C984.108 33.4745 989.417 26.21 996.398 20.0498C1003.38 13.8896 1011.94 9.03694 1022.09 5.49191C1032.3 1.94687 1043.98 0.174346 1057.12 0.174346C1061.87 0.174346 1066.62 0.435866 1071.37 0.958904C1076.18 1.42383 1080.91 2.17933 1085.54 3.2254C1090.23 4.27148 1094.78 5.60814 1099.18 7.23537C1103.64 8.80448 1107.86 10.6932 1111.85 12.9016L1099 33.8232C1096.6 32.4284 1093.87 31.1789 1090.82 30.0747C1087.77 28.9124 1084.48 27.9535 1080.96 27.198C1077.5 26.3844 1073.89 25.7742 1070.14 25.3674C1066.44 24.9606 1062.72 24.7572 1058.96 24.7572C1050.28 24.7572 1042.54 25.8614 1035.73 28.0697C1028.93 30.22 1023.18 33.2711 1018.49 37.2229C1013.79 41.1166 1010.21 45.7949 1007.75 51.2578C1005.29 56.7206 1004.05 62.7065 1004.05 69.2154C1004.05 75.9568 1005.34 82.1461 1007.93 87.7833C1010.51 93.4205 1014.17 98.2731 1018.93 102.341C1023.68 106.409 1029.43 109.606 1036.17 111.93C1042.92 114.197 1050.46 115.33 1058.79 115.33C1065.42 115.33 1071.49 114.604 1077 113.151C1082.52 111.64 1087.33 109.518 1091.44 106.787C1095.54 104.056 1098.89 100.772 1101.47 96.9365C1104.05 93.0428 1105.75 88.6841 1106.57 83.8605H1058.52V61.1083H1131.65V61.1955L1131.74 61.1083C1133.21 68.0822 1133.65 74.8817 1133.06 81.5068C1132.53 88.0739 1131.01 94.2922 1128.48 100.162C1126.02 105.973 1122.62 111.32 1118.27 116.202C1113.93 121.083 1108.74 125.297 1102.7 128.842C1096.66 132.329 1089.79 135.06 1082.11 137.036C1074.42 138.954 1066 139.913 1056.85 139.913C1044.06 139.913 1032.59 138.053 1022.45 134.334C1012.36 130.614 1003.79 125.529 996.75 119.078C989.71 112.628 984.313 105.073 980.559 96.4134C976.863 87.7543 975.015 78.5139 975.015 68.6924Z" fill="black"/>
<path d="M1230.91 97.5467C1235.9 100.336 1240.94 102.864 1246.05 105.131C1251.21 107.339 1256.55 109.228 1262.06 110.797C1267.58 112.308 1273.36 113.47 1279.4 114.284C1285.5 115.098 1291.98 115.504 1298.85 115.504C1307.12 115.504 1314.16 114.981 1319.97 113.935C1325.77 112.831 1330.5 111.349 1334.13 109.489C1337.83 107.572 1340.5 105.305 1342.14 102.69C1343.84 100.075 1344.69 97.2271 1344.69 94.1469C1344.69 89.2071 1342.61 85.3134 1338.45 82.4658C1334.28 79.56 1327.86 78.1071 1319.17 78.1071C1315.36 78.1071 1311.34 78.3686 1307.12 78.8917C1302.89 79.3566 1298.61 79.8796 1294.27 80.4608C1289.99 81.0419 1285.73 81.594 1281.51 82.1171C1277.35 82.582 1273.41 82.8144 1269.72 82.8144C1263.56 82.8144 1257.63 82.0299 1251.94 80.4608C1246.31 78.8917 1241.3 76.538 1236.9 73.3998C1232.55 70.2615 1229.09 66.3387 1226.51 61.6314C1223.93 56.924 1222.64 51.4321 1222.64 45.1557C1222.64 41.4363 1223.14 37.746 1224.14 34.0847C1225.19 30.4234 1226.83 26.9365 1229.06 23.6239C1231.35 20.2532 1234.29 17.144 1237.86 14.2964C1241.44 11.3906 1245.75 8.89166 1250.8 6.7995C1255.9 4.70735 1261.77 3.08012 1268.4 1.91781C1275.09 0.697385 1282.68 0.0871731 1291.19 0.0871731C1297.35 0.0871731 1303.54 0.435866 1309.76 1.13325C1315.98 1.77252 1322.02 2.70237 1327.89 3.92279C1333.81 5.14321 1339.5 6.62516 1344.96 8.36862C1350.41 10.054 1355.49 11.9427 1360.18 14.0349L1347.95 36.3512C1344.08 34.6658 1339.91 33.1258 1335.45 31.731C1330.99 30.2781 1326.33 29.0286 1321.46 27.9826C1316.59 26.9365 1311.55 26.1229 1306.33 25.5417C1301.16 24.9024 1295.88 24.5828 1290.49 24.5828C1282.8 24.5828 1276.47 25.1349 1271.48 26.2391C1266.55 27.3433 1262.62 28.7671 1259.69 30.5106C1256.75 32.1959 1254.7 34.1137 1253.53 36.264C1252.41 38.3562 1251.86 40.4483 1251.86 42.5405C1251.86 46.6086 1253.7 49.9502 1257.4 52.5654C1261.1 55.1225 1266.73 56.401 1274.29 56.401C1277.35 56.401 1280.84 56.1976 1284.77 55.7908C1288.76 55.3259 1292.92 54.8319 1297.26 54.3088C1301.66 53.7858 1306.12 53.3209 1310.64 52.9141C1315.21 52.4491 1319.64 52.2167 1323.93 52.2167C1332.02 52.2167 1339.18 53.1175 1345.4 54.9191C1351.67 56.7206 1356.92 59.3068 1361.15 62.6775C1365.37 65.99 1368.57 70.0291 1370.74 74.7945C1372.91 79.5019 1374 84.7904 1374 90.66C1374 98.5056 1372.15 105.509 1368.45 111.669C1364.82 117.771 1359.59 122.943 1352.79 127.186C1346.04 131.37 1337.89 134.566 1328.33 136.775C1318.76 138.925 1308.12 140 1296.38 140C1288.64 140 1281.07 139.506 1273.68 138.518C1266.29 137.588 1259.19 136.252 1252.38 134.508C1245.64 132.707 1239.18 130.585 1233.02 128.144C1226.92 125.645 1221.26 122.914 1216.04 119.95L1230.91 97.5467Z" fill="black"/>
<path d="M1396.61 69.5641C1396.61 59.2777 1398.52 49.863 1402.33 41.32C1406.14 32.7771 1411.48 25.4545 1418.35 19.3524C1425.27 13.1922 1433.54 8.42673 1443.16 5.05604C1452.84 1.68535 1463.55 0 1475.28 0C1486.96 0 1497.63 1.68535 1507.31 5.05604C1516.99 8.42673 1525.26 13.1922 1532.13 19.3524C1539.05 25.4545 1544.42 32.7771 1548.23 41.32C1552.05 49.863 1553.95 59.2777 1553.95 69.5641C1553.95 79.9087 1552.05 89.4105 1548.23 98.0697C1544.42 106.671 1539.05 114.081 1532.13 120.299C1525.26 126.517 1516.99 131.37 1507.31 134.857C1497.63 138.286 1486.96 140 1475.28 140C1463.55 140 1452.84 138.286 1443.16 134.857C1433.54 131.37 1425.27 126.517 1418.35 120.299C1411.48 114.081 1406.14 106.671 1402.33 98.0697C1398.52 89.4105 1396.61 79.9087 1396.61 69.5641ZM1424.51 69.5641C1424.51 76.5961 1425.77 82.9307 1428.29 88.5679C1430.87 94.2051 1434.42 99.0286 1438.94 103.039C1443.51 106.99 1448.88 110.042 1455.04 112.192C1461.26 114.342 1468.01 115.417 1475.28 115.417C1482.56 115.417 1489.27 114.342 1495.43 112.192C1501.65 110.042 1507.02 106.99 1511.54 103.039C1516.05 99.0286 1519.6 94.2051 1522.18 88.5679C1524.77 82.9307 1526.06 76.5961 1526.06 69.5641C1526.06 62.5322 1524.77 56.2266 1522.18 50.6476C1519.6 45.0685 1516.05 40.3611 1511.54 36.5255C1507.02 32.6318 1501.65 29.6679 1495.43 27.6339C1489.27 25.5998 1482.56 24.5828 1475.28 24.5828C1468.01 24.5828 1461.26 25.5998 1455.04 27.6339C1448.88 29.6679 1443.51 32.6318 1438.94 36.5255C1434.42 40.3611 1430.87 45.0685 1428.29 50.6476C1425.77 56.2266 1424.51 62.5322 1424.51 69.5641Z" fill="black"/>
<path d="M1576.83 69.5641C1576.83 59.2777 1578.74 49.863 1582.55 41.32C1586.36 32.7771 1591.7 25.4545 1598.57 19.3524C1605.49 13.1922 1613.76 8.42673 1623.38 5.05604C1633.06 1.68535 1643.77 0 1655.5 0C1667.18 0 1677.85 1.68535 1687.53 5.05604C1697.21 8.42673 1705.48 13.1922 1712.35 19.3524C1719.27 25.4545 1724.64 32.7771 1728.45 41.32C1732.26 49.863 1734.17 59.2777 1734.17 69.5641C1734.17 79.9087 1732.26 89.4105 1728.45 98.0697C1724.64 106.671 1719.27 114.081 1712.35 120.299C1705.48 126.517 1697.21 131.37 1687.53 134.857C1677.85 138.286 1667.18 140 1655.5 140C1643.77 140 1633.06 138.286 1623.38 134.857C1613.76 131.37 1605.49 126.517 1598.57 120.299C1591.7 114.081 1586.36 106.671 1582.55 98.0697C1578.74 89.4105 1576.83 79.9087 1576.83 69.5641ZM1604.73 69.5641C1604.73 76.5961 1605.99 82.9307 1608.51 88.5679C1611.09 94.2051 1614.64 99.0286 1619.16 103.039C1623.73 106.99 1629.1 110.042 1635.26 112.192C1641.48 114.342 1648.23 115.417 1655.5 115.417C1662.78 115.417 1669.49 114.342 1675.65 112.192C1681.87 110.042 1687.24 106.99 1691.76 103.039C1696.27 99.0286 1699.82 94.2051 1702.4 88.5679C1704.99 82.9307 1706.28 76.5961 1706.28 69.5641C1706.28 62.5322 1704.99 56.2266 1702.4 50.6476C1699.82 45.0685 1696.27 40.3611 1691.76 36.5255C1687.24 32.6318 1681.87 29.6679 1675.65 27.6339C1669.49 25.5998 1662.78 24.5828 1655.5 24.5828C1648.23 24.5828 1641.48 25.5998 1635.26 27.6339C1629.1 29.6679 1623.73 32.6318 1619.16 36.5255C1614.64 40.3611 1611.09 45.0685 1608.51 50.6476C1605.99 56.2266 1604.73 62.5322 1604.73 69.5641Z" fill="black"/>
<path d="M1764.97 1.83064H1792.87L1878.58 46.2889V1.83064H1906.47V138.082H1878.58V75.5791L1792.87 31.3823V138.082H1764.97V1.83064Z" fill="black"/>
</mask>
<g mask="url(#mask0_105_16)">
<rect y="70" width="1906" height="70" fill="#7AAAF5"/>
<rect width="1906" height="70" fill="#11111E"/>
</g>
</svg>
