<svg width="54" height="54" viewBox="0 0 54 54" fill="none" xmlns="http://www.w3.org/2000/svg">
<path d="M54 42.428C54 44.191 52.5709 45.6202 50.808 45.6202H3.19201C1.4291 45.6202 0 44.1908 0 42.428V11.5715C0 9.8085 1.4291 8.37939 3.19201 8.37939H50.8079C52.5709 8.37939 53.9999 9.8086 53.9999 11.5715L54 42.428Z" fill="#34495E"/>
<path opacity="0.15" d="M2.26937 42.428V11.5715C2.26937 9.8085 3.69868 8.37939 5.46159 8.37939H3.19191C1.4291 8.37939 0 9.80871 0 11.5715V42.428C0 44.191 1.4291 45.6202 3.19201 45.6202H5.4617C3.69879 45.6202 2.26937 44.1908 2.26937 42.428Z" fill="#202121"/>
<path d="M32.6309 26.9792C32.6353 25.9629 32.2542 24.9451 31.4873 24.1782C30.7188 23.4096 29.6985 23.0289 28.6801 23.035C28.6752 23.035 28.6705 23.0347 28.6654 23.0347C26.454 23.0347 24.6998 24.7884 24.6998 27.0005C24.6998 29.1908 26.4756 30.966 28.6654 30.966C30.8775 30.966 32.6315 29.212 32.6315 27.0005C32.6315 26.9932 32.6309 26.9864 32.6309 26.9792Z" fill="#F26E21"/>
<path d="M23.9622 28.6783C23.3695 29.2717 22.8224 29.5035 22.2331 29.516C20.7976 29.5032 19.7422 28.44 19.7422 26.9243C19.7422 26.1614 20.0311 25.536 20.4887 25.0018C20.9178 24.5944 21.4707 24.3312 22.1065 24.3312C22.7927 24.3312 23.3268 24.5599 23.9366 25.1701V23.416C23.3269 23.1111 22.7926 22.9585 22.1065 22.9585C21.137 23.0278 20.2229 23.4195 19.5217 24.0346C19.3197 24.2164 19.126 24.4171 18.9618 24.6468C18.4497 25.3107 18.1401 26.1235 18.1401 27.0009C18.1401 29.2123 19.8948 30.8901 22.1064 30.8901C22.1171 30.8901 22.1278 30.8891 22.1382 30.889C22.1531 30.8892 22.1677 30.8901 22.1825 30.8901C22.7925 30.8901 23.3268 30.7379 24.0131 30.4328L23.9622 28.6783C23.9365 28.704 23.9877 28.728 23.9622 28.7523V28.6783Z" fill="#E7E8E3"/>
<path d="M37.638 24.0507L35.9108 28.2971L33.9278 23.2632H32.3265L35.4532 30.9661H36.2921L39.5715 23.2632H37.9702L37.638 24.0507Z" fill="#E7E8E3"/>
<path d="M40.1819 26.619V30.7376H44.3005H44.3764V29.5169H43.08H41.7072V28.1445V27.4583H44.3005V26.1614H41.7072V24.5599H44.3764V23.2632H40.1819V26.619Z" fill="#E7E8E3"/>
<path d="M5.70952 23.2632H3.57367V30.7376H5.70941C6.85322 30.7376 7.69202 30.4323 8.37841 29.8984C9.2172 29.212 9.75129 28.1446 9.75129 27.0008C9.7514 24.7885 8.14954 23.2632 5.70952 23.2632ZM7.46346 28.9072C7.00584 29.2884 6.3957 29.5169 5.48044 29.5169H5.02281V24.5598H5.40408C6.31934 24.5598 6.92948 24.7123 7.38721 25.1697C7.92099 25.627 8.22622 26.3139 8.22622 27.0005C8.30247 27.6868 7.99745 28.4492 7.46346 28.9072Z" fill="#E7E8E3"/>
<path d="M11.8873 23.2627H10.4383V30.7369H11.8873V23.2627Z" fill="#E7E8E3"/>
<path d="M15.5476 26.1615C14.6326 25.8565 14.4035 25.6275 14.4035 25.2464C14.4035 24.7887 14.8612 24.4075 15.4713 24.4075C15.9289 24.4075 16.3102 24.5601 16.6916 25.0177L17.4544 24.0263C16.8441 23.4922 16.0817 23.1875 15.2427 23.1875C13.9459 23.1875 12.8781 24.1028 12.8781 25.3226C12.8781 26.3906 13.3362 26.8481 14.7088 27.382C15.3189 27.6104 15.5478 27.687 15.7006 27.8395C16.0051 27.9918 16.1579 28.2972 16.1579 28.6019C16.1579 29.2121 15.7006 29.6698 15.0138 29.6698C14.3267 29.6698 13.7171 29.2886 13.412 28.6783L12.4968 29.5936C13.1835 30.585 14.0224 31.0425 15.0901 31.0425C16.6153 31.0425 17.6825 30.0511 17.6825 28.6019C17.6828 27.3056 17.2255 26.7718 15.5476 26.1615Z" fill="#E7E8E3"/>
<path d="M48.4949 27.6103C49.6385 27.3818 50.2488 26.6189 50.2488 25.4752C50.2488 24.1026 49.2572 23.2632 47.5796 23.2632H45.3677V30.7376H46.8168V27.7629H47.0459L49.1045 30.7376H50.8589L48.4949 27.6103ZM47.2742 26.695H46.8169V24.4073H47.2742C48.1895 24.4073 48.7235 24.7885 48.7235 25.5516C48.7235 26.314 48.1896 26.695 47.2742 26.695Z" fill="#E7E8E3"/>
</svg>
