<svg width="54" height="54" viewBox="0 0 54 54" fill="none" xmlns="http://www.w3.org/2000/svg">
<path d="M54 42.428C54 44.191 52.5709 45.6202 50.808 45.6202H3.19201C1.4291 45.6202 0 44.1909 0 42.428V11.5715C0 9.8085 1.4291 8.37939 3.19201 8.37939H50.808C52.571 8.37939 54 9.8086 54 11.5715V42.428Z" fill="#44423E"/>
<path d="M36.3424 39.9585C43.4744 39.9585 49.256 34.1769 49.256 27.0449C49.256 19.913 43.4744 14.1313 36.3424 14.1313C29.2104 14.1313 23.4288 19.913 23.4288 27.0449C23.4288 34.1769 29.2104 39.9585 36.3424 39.9585Z" fill="#E7E8E3"/>
<path opacity="0.15" d="M2.26937 42.428V11.5715C2.26937 9.8085 3.69868 8.37939 5.46159 8.37939H3.19191C1.4291 8.37939 0 9.8085 0 11.5715V42.428C0 44.191 1.4291 45.6202 3.19201 45.6202H5.4617C3.69879 45.6202 2.26937 44.1909 2.26937 42.428Z" fill="#202121"/>
<path d="M36.1762 35.9692L36.8178 33.4028C39.4432 33.8694 41.4261 33.6942 42.2433 31.3027C42.9431 29.3776 42.2433 28.2693 40.8431 27.5692C41.8929 27.336 42.6514 26.6357 42.8264 25.2941C43.1179 23.4274 41.6595 22.4357 39.6181 21.7944L40.2596 19.2859L38.7429 18.8776L38.1595 21.3277C37.7514 21.2106 37.3429 21.1526 36.9344 21.0359L37.5764 18.586L36.0595 18.1777L35.4179 20.686C35.0678 20.6275 34.7179 20.5107 34.4258 20.4524L32.3261 19.9274L31.9177 21.5605L33.026 21.8524C33.6095 21.9688 33.726 22.3775 33.726 22.7271L33.026 25.5856C33.0844 25.5856 33.1429 25.5856 33.2011 25.644C33.1429 25.644 33.0845 25.5856 33.026 25.5856L32.0343 29.6107C31.9759 29.7859 31.7427 30.0774 31.3343 29.9607L30.2261 29.669L29.4677 31.4191L31.451 31.9439C31.8594 32.061 32.2094 32.119 32.5593 32.2356L31.9177 34.8025L33.4344 35.2108L34.076 32.7026C34.4844 32.7608 34.8927 32.8771 35.3011 32.9941L34.6598 35.5022L36.1762 35.9692ZM36.5844 22.844C37.4596 23.0774 40.2011 23.4857 39.7929 25.294C39.3846 27.044 36.7013 26.1692 35.8262 25.9356L36.5844 22.844ZM34.6012 30.836L35.4179 27.4525C36.4677 27.744 39.7928 28.2108 39.3259 30.1944C38.8595 32.1192 35.6515 31.0692 34.6012 30.836Z" fill="#F7931A"/>
<path d="M18.0287 16.1867H5.69648C5.21016 16.1867 4.81602 15.7927 4.81602 15.3062C4.81602 14.8199 5.21006 14.4258 5.69648 14.4258H18.0288C18.515 14.4258 18.9093 14.8198 18.9093 15.3062C18.9092 15.7927 18.5152 16.1867 18.0287 16.1867Z" fill="#E7E8E3"/>
<path d="M18.0287 20.0607H5.69648C5.21016 20.0607 4.81602 19.6667 4.81602 19.1803C4.81602 18.6939 5.21006 18.2998 5.69648 18.2998H18.0288C18.515 18.2998 18.9093 18.6938 18.9093 19.1803C18.9092 19.6666 18.5152 20.0607 18.0287 20.0607Z" fill="#E7E8E3"/>
</svg>
