<svg width="54" height="54" viewBox="0 0 54 54" fill="none" xmlns="http://www.w3.org/2000/svg">
<path d="M54 42.4279C54 44.1909 52.5709 45.6201 50.808 45.6201H3.19201C1.4291 45.6202 0 44.1909 0 42.4279V11.5715C0 9.8086 1.4291 8.37939 3.19201 8.37939H50.808C52.571 8.37939 54 9.8086 54 11.5715V42.4279Z" fill="#306FC5"/>
<path opacity="0.15" d="M2.26937 42.4279V11.5715C2.26937 9.8086 3.69868 8.37939 5.46159 8.37939H3.19191C1.4291 8.37939 0 9.8085 0 11.5715V42.428C0 44.191 1.4291 45.6202 3.19201 45.6202H5.4617C3.69879 45.6202 2.26937 44.1909 2.26937 42.4279Z" fill="#202121"/>
<path d="M7.86697 23.2815H9.48044L8.67392 21.228L7.86697 23.2815Z" fill="white"/>
<path d="M16.4474 30.1748V31.1283H19.1611V32.1553H16.4474V33.2556H19.4543L20.8476 31.7152L19.5277 30.1748H16.4474Z" fill="white"/>
<path d="M37.6416 21.228L36.7615 23.2815H38.4485L37.6416 21.228Z" fill="white"/>
<path d="M24.2945 33.8418V29.6616L22.3877 31.7152L24.2945 33.8418Z" fill="white"/>
<path d="M27.8881 30.8351C27.8147 30.3951 27.5211 30.1748 27.0808 30.1748H25.5411V31.4949H27.1547C27.5946 31.495 27.8881 31.2751 27.8881 30.8351Z" fill="white"/>
<path d="M33.0212 31.3487C33.1679 31.2752 33.2416 31.0549 33.2416 30.8354C33.315 30.5423 33.1679 30.3953 33.0212 30.3219C32.875 30.2485 32.6546 30.2485 32.4349 30.2485H30.9679V31.4221H32.4348C32.6545 31.4221 32.8748 31.4221 33.0212 31.3487Z" fill="white"/>
<path d="M43.5815 19.3213V20.2013L43.1418 19.3213H39.6953V20.2013L39.2551 19.3213H34.5615C33.7549 19.3213 33.0945 19.4681 32.5081 19.7614V19.3213H29.2081V19.3947V19.7614C28.8415 19.4682 28.4015 19.3213 27.8148 19.3213H16.0075L15.2005 21.1548L14.394 19.3213H11.754H10.6538V20.2013L10.2871 19.3213H10.2137H7.06032L5.59335 22.768L3.9068 26.5081L3.87579 26.5816H3.9068H7.64704H7.69387L7.72044 26.5081L8.16067 25.4083H9.114L9.55402 26.5816H13.8072V26.5081V25.7016L14.1741 26.5815H16.3006L16.6671 25.7016V26.5081V26.5816H18.3539H26.7877H26.8611V24.6748H27.0081C27.1546 24.6748 27.1546 24.6748 27.1546 24.8949V26.5082H32.4349V26.0682C32.875 26.2885 33.5346 26.5082 34.4147 26.5082H36.6151L37.0551 25.3351H38.0815L38.5215 26.5082H42.7749V25.775V25.4084L43.4352 26.5082H43.5815H43.6551H46.8819V19.3213H43.5817H43.5815ZM18.7208 25.4818H17.9873H17.5474V25.0421V21.4482L17.474 21.6164V21.6144L15.7679 25.4818H15.7139H15.3217H14.6871L12.9271 21.4482V25.4818H10.4338L9.92052 24.3818H7.42682L6.9134 25.4818H5.62425L7.79375 20.3481H9.627L11.6804 25.2616V20.3481H12.1203H13.6233L13.6579 20.4216H13.6604L14.5857 22.4355L15.2502 23.9443L15.2737 23.8683L16.7403 20.3482H18.7207V25.4818H18.7208ZM23.7812 21.4482H20.921V22.4015H23.7078V23.4281H20.921V24.4552H23.7812V25.5549H19.6744V20.3482H23.7812V21.4482ZM29.0119 23.3392C29.0138 23.3409 29.0163 23.3421 29.0186 23.3437C29.0463 23.373 29.0701 23.4024 29.0903 23.4306C29.2308 23.6147 29.3444 23.8886 29.3501 24.2902C29.3505 24.2972 29.3508 24.304 29.3512 24.311C29.3512 24.315 29.352 24.3185 29.352 24.3226C29.352 24.3249 29.3518 24.3267 29.3518 24.3289C29.3535 24.3693 29.3545 24.4106 29.3545 24.4552V25.4819H28.2547V24.895C28.2547 24.6017 28.2547 24.1616 28.0344 23.8683C27.9651 23.799 27.8949 23.7533 27.8186 23.7208C27.7087 23.6496 27.5004 23.6485 27.1546 23.6485H25.8342V25.4819H24.5877V20.3482H27.3748C28.0344 20.3482 28.4746 20.3482 28.8414 20.5682C29.2007 20.784 29.4178 21.1419 29.426 21.7086C29.409 22.489 28.9081 22.9172 28.5479 23.0616C28.5479 23.0616 28.7926 23.1109 29.0119 23.3392ZM31.4815 25.4818H30.2346V20.3481H31.4815V25.4818ZM45.7822 25.4818H44.1685L41.8219 21.5948V24.8216L41.8142 24.814V25.485H40.5752V25.4819H39.3284L38.8884 24.3819H36.3214L35.8813 25.555H34.488C33.9017 25.555 33.1678 25.4085 32.728 24.9685C32.288 24.5285 32.0682 23.9418 32.0682 22.9885C32.0682 22.2552 32.2147 21.5214 32.728 20.9349C33.0944 20.4945 33.7548 20.3482 34.5613 20.3482H35.7349V21.4482H34.5613C34.1213 21.4482 33.9017 21.5213 33.6077 21.7417C33.3882 21.9616 33.2414 22.4015 33.2414 22.9148C33.2414 23.5016 33.3148 23.8683 33.6077 24.1616C33.8283 24.3819 34.1214 24.4553 34.488 24.4553H35.0013L36.6879 20.4219H37.4216H38.5214L40.5751 25.3353V25.0847V23.4283V23.2818V20.422H42.4084L44.5347 24.0153V20.422H45.782V25.482H45.7822V25.4818Z" fill="white"/>
<path d="M27.9662 22.4864C27.9876 22.4635 28.007 22.4375 28.0235 22.4078C28.0899 22.3026 28.1661 22.1132 28.125 21.8547C28.1234 21.831 28.119 21.809 28.114 21.7879C28.1126 21.7819 28.1128 21.7768 28.1112 21.7709L28.1105 21.771C28.074 21.6454 27.9809 21.5682 27.888 21.5213C27.7409 21.4482 27.5209 21.4482 27.301 21.4482H25.834V22.6218H27.301C27.5209 22.6218 27.741 22.6218 27.888 22.5483C27.91 22.5371 27.9296 22.5219 27.9485 22.5047L27.9487 22.5057C27.9488 22.5056 27.9563 22.4978 27.9662 22.4864Z" fill="white"/>
<path d="M50.1087 32.8159C50.1087 32.3025 49.9622 31.789 49.7423 31.4224V28.1224H49.739V27.9021C49.739 27.9021 46.6651 27.9021 46.2076 27.9021C45.7502 27.9021 45.1953 28.342 45.1953 28.342V27.9021H41.822C41.3083 27.9021 40.6487 28.0489 40.355 28.342V27.9021H34.3416V28.1224V28.3419C33.9019 27.9755 33.0945 27.902 32.7281 27.902H28.7679V28.1223V28.3418C28.4013 27.9754 27.5208 27.9019 27.0806 27.9019H22.6811L21.6541 29.002L20.7007 27.9019H20.3937H19.894H14.1006V28.1222V28.7015V35.3092H20.5543L21.6147 34.2485L22.5338 35.3092H22.6074H26.3261H26.4946H26.568H26.641V34.5759V33.6226H27.0079C27.5208 33.6226 28.1811 33.6226 28.6945 33.4023V35.2355V35.3825H31.9947V35.2355V33.4757H32.141C32.3613 33.4757 32.3613 33.4757 32.3613 33.6957V35.2355V35.3825H42.3347C42.9953 35.3825 43.6549 35.2355 44.0215 34.9422V35.2355V35.3825H47.1752C47.8348 35.3825 48.4954 35.3092 48.9354 35.0157C49.6106 34.6106 50.0362 33.8935 50.0995 33.0383C50.1024 33.013 50.1061 32.9877 50.1084 32.9622L50.1041 32.9581C50.1068 32.9107 50.1087 32.8637 50.1087 32.8159ZM27.008 32.3759H25.5409V32.5954V33.0356V33.4758V34.2825H23.1305L21.7275 32.6689L21.7227 32.6743L21.6541 32.5954L20.0408 34.2825H15.3473V29.149H20.1142L21.4165 30.5755L21.6903 30.8742L21.7274 30.8357L23.2677 29.1491H27.1544C27.9087 29.1491 28.7534 29.3353 29.0735 30.1028C29.112 30.2548 29.1344 30.4237 29.1344 30.6157C29.1344 32.0823 28.1076 32.3759 27.008 32.3759ZM34.3416 32.3024C34.4881 32.5219 34.5615 32.8157 34.5615 33.256V34.2824H33.3149V33.6226C33.3149 33.3287 33.3149 32.8157 33.0946 32.5954C32.9483 32.3759 32.6546 32.3759 32.2149 32.3759H30.895V34.2825H29.6483V29.0756H32.4349C33.0212 29.0756 33.5345 29.0756 33.9019 29.2954C34.2683 29.5156 34.5615 29.8823 34.5615 30.4691C34.5615 31.2756 34.0484 31.7156 33.6816 31.8625C34.0484 32.0086 34.2683 32.1557 34.3416 32.3024ZM39.402 30.1752H36.5414V31.1287H39.3284V32.1556H36.5414V33.1825H39.402V34.2824H35.2951V29.0755H39.402V30.1752ZM42.4819 34.2825H40.135V33.1826H42.4819C42.7015 33.1826 42.8485 33.1826 42.9955 33.0358C43.0689 32.9622 43.1418 32.8159 43.1418 32.669C43.1418 32.522 43.0689 32.376 42.9955 32.3025C42.9219 32.2292 42.775 32.1558 42.5551 32.1558C41.3816 32.0824 39.9883 32.1558 39.9883 30.5426C39.9883 29.8092 40.4283 29.0023 41.7484 29.0023H44.1684V30.2488H41.8951C41.6752 30.2488 41.5283 30.2489 41.3815 30.3223C41.2352 30.3958 41.2352 30.5426 41.2352 30.6891C41.2352 30.9092 41.3815 30.9826 41.5282 31.0554C41.6752 31.1289 41.8217 31.1289 41.9682 31.1289H42.6284C43.2885 31.1289 43.7284 31.2756 44.0217 31.569C44.2418 31.7891 44.3885 32.1558 44.3885 32.669C44.3885 33.7688 43.7285 34.2825 42.4819 34.2825ZM48.7888 33.7688C48.4958 34.0625 47.9822 34.2825 47.2485 34.2825H44.9023V33.1826H47.2484C47.4685 33.1826 47.6156 33.1826 47.7621 33.0358C47.8351 32.9622 47.9088 32.8159 47.9088 32.669C47.9088 32.522 47.8351 32.376 47.7621 32.3025C47.6887 32.2292 47.5422 32.1558 47.322 32.1558C46.149 32.0824 44.7552 32.1558 44.7552 30.5427C44.7552 29.8456 45.154 29.216 46.1375 29.029C46.2551 29.0128 46.3794 29.0023 46.5154 29.0023H48.9357V30.2488H47.322H46.7355H46.6621C46.442 30.2488 46.2955 30.2489 46.149 30.3223C46.0752 30.3958 46.0018 30.5426 46.0018 30.6891C46.0018 30.9092 46.0752 30.9826 46.2955 31.0554C46.442 31.1289 46.5887 31.1289 46.7355 31.1289H46.8084H47.3953C47.7159 31.1289 47.9582 31.1684 48.18 31.2464C48.3832 31.3199 49.0556 31.6207 49.206 32.4059C49.2191 32.4882 49.2287 32.574 49.2287 32.669C49.2287 33.1092 49.082 33.4758 48.7888 33.7688Z" fill="white"/>
</svg>
