<svg width="54" height="54" viewBox="0 0 54 54" fill="none" xmlns="http://www.w3.org/2000/svg">
<path d="M54 42.428C54 44.191 52.5709 45.6202 50.808 45.6202H3.19201C1.4291 45.6202 0 44.1908 0 42.428V11.5715C0 9.8085 1.4291 8.37939 3.19201 8.37939H50.8079C52.5709 8.37939 53.9999 9.8086 53.9999 11.5715L54 42.428Z" fill="#E7E8E3"/>
<path opacity="0.15" d="M2.26937 42.428V11.5715C2.26937 9.8085 3.69868 8.37939 5.46159 8.37939H3.19191C1.4291 8.37939 0 9.80871 0 11.5715V42.428C0 44.191 1.4291 45.6202 3.19201 45.6202H5.4617C3.69879 45.6202 2.26937 44.1908 2.26937 42.428Z" fill="#202121"/>
<path d="M15.4158 18.9195H19.428C20.9055 18.8955 22.5271 19.28 22.5271 21.0699C22.5271 21.8386 22.0705 22.4632 21.398 22.7996C22.3107 23.0638 22.8757 23.8568 22.8757 24.8297C22.8757 26.8719 21.3739 27.4964 19.536 27.4964H15.4158V18.9195ZM17.6499 22.2951H19.38C19.7642 22.2951 20.2928 22.0908 20.2928 21.4783C20.2928 20.8536 19.8482 20.6495 19.38 20.6495H17.6499V22.2951ZM17.6499 25.7066H19.4399C20.1486 25.7066 20.6411 25.4544 20.6411 24.7457C20.6411 23.9888 20.1126 23.7366 19.4399 23.7366H17.6499V25.7066Z" fill="#006E90"/>
<path d="M26.4185 18.9194H28.6886L31.896 27.4964H29.5656L29.037 25.9588H26.0459L25.5053 27.4964H23.2109L26.4185 18.9194ZM26.5624 24.3013H28.5083L27.5593 21.2982H27.5355L26.5624 24.3013Z" fill="#006E90"/>
<path d="M32.5197 18.9194H34.8144L37.7935 24.205H37.8173V18.9194H39.9198V27.4964H37.6251L34.6461 22.151H34.6222V27.4964H32.5197V18.9194Z" fill="#006E90"/>
<path d="M41.4446 18.9194H43.679V22.211L46.5019 18.9194H49.2769L46.1054 22.2951L49.6733 27.4965H46.8985L44.592 23.8929L43.6791 24.8539V27.4966H41.4447V18.9195L41.4446 18.9194Z" fill="#006E90"/>
<path d="M9.7973 30.6088H8.03502V35.1916H6.49665V30.6088H4.73459V29.2852H9.7973V30.6088Z" fill="#66CDE7"/>
<path d="M10.4756 29.2847H13.4867C14.5291 29.2847 15.5547 29.7563 15.5547 30.9473C15.5547 31.5843 15.249 32.1882 14.6284 32.4283V32.4446C15.257 32.5937 15.4388 33.2966 15.4886 33.8593C15.5052 34.1073 15.5302 34.9759 15.7369 35.1912H14.2144C14.0822 34.9927 14.0574 34.4136 14.0408 34.2482C13.9993 33.6526 13.9004 33.0405 13.1806 33.0405H12.0143V35.1912H10.4756V29.2847ZM12.0146 31.8489H13.3047C13.768 31.8489 14.0162 31.6009 14.0162 31.1543C14.0162 30.716 13.6688 30.5171 13.2387 30.5171H12.0145C12.0146 30.5171 12.0146 31.8489 12.0146 31.8489Z" fill="#66CDE7"/>
<path d="M18.053 29.2847H19.6165L21.8251 35.1911H20.2201L19.8564 34.1321H17.7965L17.4244 35.1911H15.8442L18.053 29.2847ZM18.1524 32.9906H19.4926L18.839 30.9223H18.8224L18.1524 32.9906Z" fill="#66CDE7"/>
<path d="M22.2554 29.2847H23.8354L25.8871 32.9245H25.9038V29.2847H27.3515V35.1911H25.7716L23.7197 31.5101H23.7031V35.1911H22.2554V29.2847Z" fill="#66CDE7"/>
<path d="M29.6015 33.206C29.6347 33.9008 30.0648 34.124 30.7184 34.124C31.1815 34.124 31.6614 33.9587 31.6614 33.5203C31.6614 32.9992 30.8175 32.8999 29.9656 32.6598C29.1218 32.4199 28.2366 32.0396 28.2366 30.9557C28.2366 29.6653 29.5354 29.1606 30.644 29.1606C31.8186 29.1606 33.0015 29.7312 33.0099 31.0632H31.4712C31.496 30.5255 30.9913 30.3518 30.5198 30.3518C30.1889 30.3518 29.7753 30.4675 29.7753 30.8565C29.7753 31.3114 30.6272 31.394 31.4876 31.6341C32.3398 31.8739 33.2001 32.2709 33.2001 33.338C33.2001 34.8355 31.926 35.3154 30.6274 35.3154C29.2707 35.3154 28.0714 34.7196 28.0628 33.2059H29.6015V33.206Z" fill="#66CDE7"/>
<path d="M33.9196 29.2847H38.271V30.5172H35.4585V31.725H37.8905V32.916H35.4585V35.1911H33.9196V29.2847Z" fill="#66CDE7"/>
<path d="M38.9743 29.2847H43.6813V30.5172H40.5129V31.5513H43.4082V32.7425H40.5129V33.8676H43.7641V35.191H38.9744L38.9743 29.2847Z" fill="#66CDE7"/>
<path d="M44.6411 29.2847H47.6522C48.6946 29.2847 49.72 29.7563 49.72 30.9473C49.72 31.5843 49.4142 32.1882 48.7937 32.4283V32.4446C49.4223 32.5937 49.6044 33.2966 49.6539 33.8593C49.6707 34.1073 49.6953 34.9759 49.9022 35.1912H48.38C48.2474 34.9927 48.2229 34.4136 48.2062 34.2482C48.1649 33.6526 48.0658 33.0405 47.346 33.0405H46.1798V35.1912H44.6411V29.2847ZM46.1798 31.8489H47.4704C47.9335 31.8489 48.1815 31.6009 48.1815 31.1543C48.1815 30.716 47.8344 30.5171 47.4039 30.5171H46.1798V31.8489Z" fill="#66CDE7"/>
<path d="M14.0472 18.9189H4.73434V20.7838H14.0472V18.9189Z" fill="#D92B2B"/>
<path d="M14.0472 25.6323H4.73434V27.4971H14.0472V25.6323Z" fill="#D92B2B"/>
<path d="M14.0472 22.2754H4.73434V24.1403H14.0472V22.2754Z" fill="#D92B2B"/>
</svg>
