<svg width="727" height="727" viewBox="0 0 727 727" fill="none" xmlns="http://www.w3.org/2000/svg">
<mask id="mask0_33_205" style="mask-type:alpha" maskUnits="userSpaceOnUse" x="0" y="0" width="727" height="727">
<rect width="727" height="727" fill="#D7E6FC"/>
</mask>
<g mask="url(#mask0_33_205)">
<g clip-path="url(#clip0_33_205)">
<path d="M6.38933 499.806C6.46811 498.639 6.99913 497.549 7.86934 496.768C8.73956 495.987 9.88022 495.577 11.0485 495.625C31.9084 495.973 52.1353 502.847 68.8881 515.281C85.641 527.715 98.0784 545.084 104.453 564.949C104.837 566.053 104.775 567.264 104.279 568.323C103.784 569.382 102.895 570.206 101.801 570.619L5.12379 607.58C4.41522 607.858 3.64758 607.951 2.89307 607.85C2.13856 607.75 1.422 607.459 0.810784 607.006C0.199573 606.552 -0.286192 605.95 -0.600807 605.257C-0.915423 604.564 -1.04855 603.802 -0.987661 603.044L6.38933 499.806Z" stroke="#7AAAF5" stroke-width="9.0875" stroke-linecap="round" stroke-linejoin="round"/>
<path d="M5.38039 513.84C24.2647 512.938 42.8788 518.602 58.0602 529.87C73.2415 541.137 84.0539 557.313 88.6604 575.649" stroke="#7AAAF5" stroke-width="9.0875" stroke-linecap="round" stroke-linejoin="round"/>
<path d="M34.3641 596.391C32.8563 594.428 31.8277 592.139 31.3603 589.708C30.8928 587.277 30.9994 584.77 31.6716 582.388C32.3437 580.005 33.5629 577.812 35.232 575.984C36.9011 574.155 38.974 572.742 41.2857 571.856C43.5974 570.97 46.084 570.636 48.5476 570.88C51.0112 571.125 53.3837 571.941 55.4762 573.264C57.5687 574.587 59.3234 576.38 60.6007 578.501C61.8779 580.622 62.6423 583.011 62.8331 585.48" stroke="#7AAAF5" stroke-width="9.0875" stroke-linecap="round" stroke-linejoin="round"/>
<path d="M3.81117 536.158C6.26285 534.622 9.08683 533.785 11.9791 533.735C14.8713 533.686 17.7223 534.426 20.2251 535.877C22.7279 537.327 24.7877 539.433 26.1827 541.967C27.5778 544.501 28.2552 547.367 28.1422 550.258C28.0291 553.148 27.1298 555.953 25.5411 558.371C23.9524 560.788 21.7345 562.726 19.1261 563.977C16.5177 565.227 13.6176 565.742 10.738 565.467C7.85845 565.192 5.1085 564.137 2.78421 562.415L1.96327 561.805" stroke="#7AAAF5" stroke-width="9.0875" stroke-linecap="round" stroke-linejoin="round"/>
</g>
<g clip-path="url(#clip1_33_205)">
<path d="M151.21 621.648C150.667 621.243 150.221 620.722 149.905 620.122C149.589 619.522 149.412 618.859 149.386 618.182C149.359 617.504 149.485 616.83 149.753 616.207C150.021 615.585 150.426 615.03 150.936 614.584C164.281 602.703 188.882 604.341 208.995 619.268C229.108 634.196 237.801 657.269 230.294 673.483C230.015 674.1 229.601 674.648 229.083 675.085C228.565 675.522 227.955 675.838 227.299 676.009C226.643 676.18 225.958 676.202 225.292 676.073C224.626 675.945 223.998 675.669 223.453 675.266L151.21 621.648Z" stroke="#7AAAF5" stroke-width="9.0875" stroke-linecap="round" stroke-linejoin="round"/>
<path d="M199.446 708.375L194.03 715.672C191.157 719.543 186.864 722.114 182.096 722.819C177.327 723.525 172.474 722.307 168.603 719.435L124.82 686.939C120.949 684.066 118.378 679.773 117.672 675.005C116.967 670.236 118.184 665.383 121.057 661.512L126.473 654.215" stroke="#7AAAF5" stroke-width="9.0875" stroke-linecap="round" stroke-linejoin="round"/>
<path d="M114.644 651.094L138.303 657.336L151.13 678.174L174.789 684.416L187.616 705.253L211.275 711.496" stroke="#7AAAF5" stroke-width="9.0875" stroke-linecap="round" stroke-linejoin="round"/>
<path d="M129.067 627.848L223.932 698.256" stroke="#7AAAF5" stroke-width="9.0875" stroke-linecap="round" stroke-linejoin="round"/>
</g>
<g clip-path="url(#clip2_33_205)">
<path d="M329.035 708.361L315.495 726.604" stroke="#7AAAF5" stroke-width="9.0875" stroke-linecap="round" stroke-linejoin="round"/>
<path d="M341.805 717.839L329.206 742.438C325.974 746.793 321.144 749.685 315.78 750.479C310.416 751.273 304.956 749.903 300.601 746.671C296.246 743.44 293.354 738.61 292.56 733.246C291.766 727.881 293.136 722.421 296.368 718.067L316.265 698.883" stroke="#7AAAF5" stroke-width="9.0875" stroke-linecap="round" stroke-linejoin="round"/>
<path d="M340.437 807.359L314.896 788.403C314.896 788.403 358.281 741.384 383.765 748.981L318.773 836.548" stroke="#7AAAF5" stroke-width="9.0875" stroke-linecap="round" stroke-linejoin="round"/>
</g>
<g clip-path="url(#clip3_33_205)">
<path d="M-40.8344 260.253C-41.3778 259.848 -41.8237 259.326 -42.1394 258.726C-42.4551 258.126 -42.6326 257.463 -42.6589 256.786C-42.6851 256.109 -42.5595 255.434 -42.2912 254.812C-42.023 254.189 -41.6188 253.635 -41.1084 253.189C-27.7637 241.308 -3.16217 242.945 16.9509 257.873C37.064 272.801 45.7561 295.874 38.2493 312.087C37.9702 312.705 37.5565 313.252 37.0384 313.689C36.5202 314.126 35.9109 314.442 35.255 314.613C34.5991 314.784 33.9132 314.806 33.2476 314.678C32.5821 314.549 31.9537 314.274 31.4085 313.871L-40.8344 260.253Z" stroke="#7AAAF5" stroke-width="9.0875" stroke-linecap="round" stroke-linejoin="round"/>
<path d="M7.4013 346.979L1.98534 354.276C-0.887465 358.147 -5.18024 360.718 -9.94862 361.424C-14.717 362.129 -19.5704 360.912 -23.4411 358.039L-67.2247 325.543C-71.0954 322.67 -73.6663 318.378 -74.3719 313.609C-75.0776 308.841 -73.8601 303.988 -70.9873 300.117L-65.5713 292.82" stroke="#7AAAF5" stroke-width="9.0875" stroke-linecap="round" stroke-linejoin="round"/>
<path d="M-77.4008 289.698L-53.7417 295.941L-40.9145 316.778L-17.2554 323.021L-4.42823 343.858L19.2309 350.101" stroke="#7AAAF5" stroke-width="9.0875" stroke-linecap="round" stroke-linejoin="round"/>
<path d="M-62.9773 266.453L31.8871 336.86" stroke="#7AAAF5" stroke-width="9.0875" stroke-linecap="round" stroke-linejoin="round"/>
</g>
<g clip-path="url(#clip4_33_205)">
<path d="M136.991 346.965L123.451 365.209" stroke="#7AAAF5" stroke-width="9.0875" stroke-linecap="round" stroke-linejoin="round"/>
<path d="M108.557 385.276L71.9991 434.532" stroke="#7AAAF5" stroke-width="9.0875" stroke-linecap="round" stroke-linejoin="round"/>
<path d="M149.761 356.443L137.162 381.043C133.93 385.398 129.101 388.29 123.736 389.084C118.372 389.878 112.912 388.508 108.557 385.276C104.203 382.044 101.31 377.215 100.516 371.85C99.7225 366.486 101.092 361.026 104.324 356.671L124.221 337.487" stroke="#7AAAF5" stroke-width="9.0875" stroke-linecap="round" stroke-linejoin="round"/>
<path d="M148.393 445.963L122.852 427.007C122.852 427.007 166.237 379.988 191.72 387.585L126.729 475.152" stroke="#7AAAF5" stroke-width="9.0875" stroke-linecap="round" stroke-linejoin="round"/>
</g>
<g clip-path="url(#clip5_33_205)">
<path d="M234.667 450.37C234.746 449.203 235.277 448.113 236.147 447.332C237.018 446.551 238.158 446.141 239.327 446.189C260.187 446.537 280.413 453.411 297.166 465.845C313.919 478.279 326.356 495.648 332.731 515.513C333.115 516.617 333.053 517.828 332.557 518.887C332.062 519.946 331.173 520.77 330.079 521.183L233.402 558.144C232.693 558.422 231.926 558.515 231.171 558.414C230.417 558.314 229.7 558.023 229.089 557.57C228.478 557.116 227.992 556.514 227.677 555.821C227.363 555.128 227.23 554.366 227.29 553.608L234.667 450.37Z" stroke="#7AAAF5" stroke-width="9.0875" stroke-linecap="round" stroke-linejoin="round"/>
<path d="M233.658 464.404C252.543 463.502 271.157 469.166 286.338 480.434C301.52 491.701 312.332 507.877 316.938 526.213" stroke="#7AAAF5" stroke-width="9.0875" stroke-linecap="round" stroke-linejoin="round"/>
<path d="M262.642 546.955C261.134 544.992 260.106 542.703 259.638 540.272C259.171 537.841 259.277 535.334 259.949 532.952C260.622 530.569 261.841 528.376 263.51 526.548C265.179 524.719 267.252 523.306 269.564 522.42C271.875 521.534 274.362 521.2 276.825 521.444C279.289 521.689 281.662 522.505 283.754 523.828C285.847 525.151 287.601 526.944 288.878 529.065C290.156 531.186 290.92 533.576 291.111 536.044" stroke="#7AAAF5" stroke-width="9.0875" stroke-linecap="round" stroke-linejoin="round"/>
<path d="M232.089 486.722C234.541 485.186 237.365 484.349 240.257 484.299C243.149 484.25 246 484.99 248.503 486.441C251.006 487.891 253.066 489.997 254.461 492.531C255.856 495.065 256.533 497.931 256.42 500.822C256.307 503.712 255.408 506.517 253.819 508.934C252.231 511.352 250.013 513.29 247.404 514.541C244.796 515.791 241.896 516.306 239.016 516.031C236.137 515.756 233.387 514.701 231.062 512.979L230.241 512.369" stroke="#7AAAF5" stroke-width="9.0875" stroke-linecap="round" stroke-linejoin="round"/>
</g>
<g clip-path="url(#clip6_33_205)">
<path d="M379.488 572.212C378.944 571.807 378.499 571.286 378.183 570.686C377.867 570.086 377.69 569.423 377.663 568.746C377.637 568.068 377.763 567.394 378.031 566.771C378.299 566.149 378.703 565.594 379.214 565.148C392.559 553.267 417.16 554.905 437.273 569.832C457.386 584.76 466.078 607.833 458.572 624.047C458.292 624.664 457.879 625.212 457.361 625.649C456.842 626.086 456.233 626.402 455.577 626.573C454.921 626.744 454.235 626.766 453.57 626.637C452.904 626.509 452.276 626.233 451.731 625.83L379.488 572.212Z" stroke="#7AAAF5" stroke-width="9.0875" stroke-linecap="round" stroke-linejoin="round"/>
<path d="M427.724 658.939L422.308 666.236C419.435 670.107 415.142 672.678 410.374 673.383C405.605 674.089 400.752 672.871 396.881 669.999L353.098 637.503C349.227 634.63 346.656 630.337 345.95 625.569C345.245 620.8 346.462 615.947 349.335 612.076L354.751 604.779" stroke="#7AAAF5" stroke-width="9.0875" stroke-linecap="round" stroke-linejoin="round"/>
<path d="M342.922 601.658L366.581 607.9L379.408 628.738L403.067 634.98L415.894 655.817L439.553 662.06" stroke="#7AAAF5" stroke-width="9.0875" stroke-linecap="round" stroke-linejoin="round"/>
<path d="M357.345 578.412L452.21 648.82" stroke="#7AAAF5" stroke-width="9.0875" stroke-linecap="round" stroke-linejoin="round"/>
</g>
<g clip-path="url(#clip7_33_205)">
<path d="M557.313 658.925L543.773 677.168" stroke="#7AAAF5" stroke-width="9.0875" stroke-linecap="round" stroke-linejoin="round"/>
<path d="M528.879 697.235L492.321 746.492" stroke="#7AAAF5" stroke-width="9.0875" stroke-linecap="round" stroke-linejoin="round"/>
<path d="M570.083 668.403L557.484 693.002C554.252 697.357 549.423 700.249 544.058 701.043C538.694 701.837 533.234 700.467 528.879 697.235C524.525 694.004 521.632 689.174 520.838 683.81C520.045 678.445 521.414 672.985 524.646 668.631L544.543 649.447" stroke="#7AAAF5" stroke-width="9.0875" stroke-linecap="round" stroke-linejoin="round"/>
<path d="M568.715 757.923L543.174 738.967C543.174 738.967 586.559 691.948 612.042 699.545L547.051 787.112" stroke="#7AAAF5" stroke-width="9.0875" stroke-linecap="round" stroke-linejoin="round"/>
</g>
<g clip-path="url(#clip8_33_205)">
<path d="M-75.2967 6.44596C-75.2179 5.27939 -74.6869 4.18965 -73.8167 3.40875C-72.9465 2.62785 -71.8058 2.21748 -70.6376 2.265C-49.7776 2.61357 -29.5508 9.48749 -12.7979 21.9213C3.95499 34.3552 16.3923 51.7243 22.7674 71.5893C23.1512 72.6938 23.0888 73.9044 22.5934 74.9635C22.098 76.0226 21.2087 76.8464 20.115 77.2597L-76.5622 114.22C-77.2708 114.498 -78.0385 114.591 -78.793 114.491C-79.5475 114.39 -80.264 114.1 -80.8753 113.646C-81.4865 113.192 -81.9722 112.591 -82.2868 111.898C-82.6015 111.205 -82.7346 110.443 -82.6737 109.684L-75.2967 6.44596Z" stroke="#7AAAF5" stroke-width="9.0875" stroke-linecap="round" stroke-linejoin="round"/>
<path d="M-76.3052 20.48C-57.4208 19.5786 -38.8068 25.2428 -23.6254 36.5103C-8.444 47.7778 2.36838 63.9537 6.97482 82.2897" stroke="#7AAAF5" stroke-width="9.0875" stroke-linecap="round" stroke-linejoin="round"/>
</g>
<g clip-path="url(#clip9_33_205)">
<path d="M69.5235 128.289C68.9801 127.884 68.5342 127.362 68.2185 126.762C67.9028 126.162 67.7253 125.499 67.699 124.822C67.6728 124.145 67.7984 123.47 68.0667 122.848C68.335 122.225 68.7391 121.671 69.2495 121.225C82.5942 109.344 107.196 110.981 127.309 125.909C147.422 140.837 156.114 163.91 148.607 180.123C148.328 180.741 147.914 181.288 147.396 181.725C146.878 182.162 146.269 182.478 145.613 182.649C144.957 182.82 144.271 182.842 143.606 182.714C142.94 182.585 142.312 182.31 141.766 181.907L69.5235 128.289Z" stroke="#7AAAF5" stroke-width="9.0875" stroke-linecap="round" stroke-linejoin="round"/>
<path d="M117.76 215.015L112.344 222.312C109.471 226.183 105.178 228.754 100.41 229.46C95.6414 230.165 90.788 228.948 86.9173 226.075L43.1337 193.579C39.263 190.706 36.6921 186.414 35.9865 181.645C35.2808 176.877 36.4983 172.024 39.3711 168.153L44.7871 160.856" stroke="#7AAAF5" stroke-width="9.0875" stroke-linecap="round" stroke-linejoin="round"/>
<path d="M32.9576 157.734L56.6167 163.977L69.4439 184.814L93.103 191.057L105.93 211.894L129.589 218.137" stroke="#7AAAF5" stroke-width="9.0875" stroke-linecap="round" stroke-linejoin="round"/>
<path d="M47.3811 134.489L142.245 204.896" stroke="#7AAAF5" stroke-width="9.0875" stroke-linecap="round" stroke-linejoin="round"/>
</g>
<g clip-path="url(#clip10_33_205)">
<path d="M247.349 215.001L233.809 233.244" stroke="#7AAAF5" stroke-width="9.0875" stroke-linecap="round" stroke-linejoin="round"/>
<path d="M218.915 253.312L182.357 302.568" stroke="#7AAAF5" stroke-width="9.0875" stroke-linecap="round" stroke-linejoin="round"/>
<path d="M260.119 224.479L247.52 249.079C244.288 253.434 239.459 256.326 234.094 257.12C228.73 257.914 223.27 256.544 218.915 253.312C214.561 250.08 211.668 245.251 210.875 239.886C210.081 234.522 211.45 229.062 214.682 224.707L234.579 205.523" stroke="#7AAAF5" stroke-width="9.0875" stroke-linecap="round" stroke-linejoin="round"/>
<path d="M258.751 313.999L233.21 295.043C233.21 295.043 276.595 248.024 302.078 255.621L237.087 343.188" stroke="#7AAAF5" stroke-width="9.0875" stroke-linecap="round" stroke-linejoin="round"/>
</g>
<g clip-path="url(#clip11_33_205)">
<path d="M345.026 318.405C345.104 317.239 345.635 316.149 346.506 315.368C347.376 314.587 348.516 314.177 349.685 314.225C370.545 314.573 390.771 321.447 407.524 333.881C424.277 346.315 436.715 363.684 443.09 383.549C443.473 384.653 443.411 385.864 442.916 386.923C442.42 387.982 441.531 388.806 440.437 389.219L343.76 426.18C343.051 426.458 342.284 426.551 341.529 426.45C340.775 426.35 340.058 426.059 339.447 425.606C338.836 425.152 338.35 424.55 338.035 423.857C337.721 423.164 337.588 422.402 337.649 421.644L345.026 318.405Z" stroke="#7AAAF5" stroke-width="9.0875" stroke-linecap="round" stroke-linejoin="round"/>
<path d="M344.017 332.44C362.901 331.538 381.515 337.202 396.696 348.47C411.878 359.737 422.69 375.913 427.297 394.249" stroke="#7AAAF5" stroke-width="9.0875" stroke-linecap="round" stroke-linejoin="round"/>
<path d="M373 414.991C371.492 413.028 370.464 410.739 369.996 408.308C369.529 405.877 369.635 403.37 370.308 400.988C370.98 398.605 372.199 396.412 373.868 394.584C375.537 392.755 377.61 391.342 379.922 390.456C382.233 389.57 384.72 389.236 387.184 389.48C389.647 389.725 392.02 390.541 394.112 391.864C396.205 393.187 397.959 394.98 399.237 397.101C400.514 399.222 401.278 401.612 401.469 404.08" stroke="#7AAAF5" stroke-width="9.0875" stroke-linecap="round" stroke-linejoin="round"/>
<path d="M342.447 354.758C344.899 353.222 347.723 352.385 350.615 352.335C353.508 352.286 356.359 353.026 358.861 354.477C361.364 355.927 363.424 358.033 364.819 360.567C366.214 363.101 366.891 365.967 366.778 368.858C366.665 371.748 365.766 374.553 364.177 376.97C362.589 379.388 360.371 381.326 357.762 382.577C355.154 383.827 352.254 384.342 349.374 384.067C346.495 383.792 343.745 382.737 341.42 381.015L340.599 380.405" stroke="#7AAAF5" stroke-width="9.0875" stroke-linecap="round" stroke-linejoin="round"/>
</g>
<g clip-path="url(#clip12_33_205)">
<path d="M489.846 440.248C489.303 439.843 488.857 439.322 488.541 438.722C488.225 438.122 488.048 437.459 488.022 436.782C487.995 436.104 488.121 435.43 488.389 434.807C488.657 434.185 489.062 433.63 489.572 433.184C502.917 421.303 527.518 422.941 547.631 437.868C567.744 452.796 576.437 475.869 568.93 492.083C568.651 492.7 568.237 493.248 567.719 493.685C567.201 494.122 566.591 494.438 565.935 494.609C565.279 494.78 564.594 494.802 563.928 494.673C563.262 494.545 562.634 494.269 562.089 493.866L489.846 440.248Z" stroke="#7AAAF5" stroke-width="9.0875" stroke-linecap="round" stroke-linejoin="round"/>
<path d="M538.082 526.975L532.666 534.272C529.793 538.143 525.5 540.714 520.732 541.419C515.963 542.125 511.11 540.907 507.239 538.035L463.456 505.539C459.585 502.666 457.014 498.373 456.308 493.605C455.603 488.836 456.82 483.983 459.693 480.112L465.109 472.815" stroke="#7AAAF5" stroke-width="9.0875" stroke-linecap="round" stroke-linejoin="round"/>
<path d="M453.28 469.694L476.939 475.936L489.766 496.774L513.425 503.016L526.252 523.853L549.911 530.096" stroke="#7AAAF5" stroke-width="9.0875" stroke-linecap="round" stroke-linejoin="round"/>
<path d="M467.703 446.448L562.568 516.856" stroke="#7AAAF5" stroke-width="9.0875" stroke-linecap="round" stroke-linejoin="round"/>
</g>
<g clip-path="url(#clip13_33_205)">
<path d="M667.671 526.961L654.131 545.204" stroke="#7AAAF5" stroke-width="9.0875" stroke-linecap="round" stroke-linejoin="round"/>
<path d="M639.237 565.271L602.68 614.528" stroke="#7AAAF5" stroke-width="9.0875" stroke-linecap="round" stroke-linejoin="round"/>
<path d="M680.441 536.439L667.842 561.039C664.61 565.393 659.781 568.285 654.416 569.079C649.052 569.873 643.592 568.503 639.237 565.271C634.883 562.04 631.99 557.21 631.197 551.846C630.403 546.481 631.773 541.021 635.004 536.667L654.901 517.483" stroke="#7AAAF5" stroke-width="9.0875" stroke-linecap="round" stroke-linejoin="round"/>
<path d="M679.073 625.959L653.532 607.003C653.532 607.003 696.917 559.984 722.401 567.581L657.409 655.148" stroke="#7AAAF5" stroke-width="9.0875" stroke-linecap="round" stroke-linejoin="round"/>
</g>
<g clip-path="url(#clip14_33_205)">
<path d="M110.961 -78.236C111.04 -79.4026 111.571 -80.4923 112.441 -81.2732C113.312 -82.0541 114.452 -82.4645 115.621 -82.4169C136.48 -82.0684 156.707 -75.1945 173.46 -62.7606C190.213 -50.3268 202.65 -32.9576 209.025 -13.0926C209.409 -11.9882 209.347 -10.7776 208.851 -9.71848C208.356 -8.65939 207.467 -7.83552 206.373 -7.42227L109.696 29.5381C108.987 29.8161 108.22 29.9093 107.465 29.8089C106.711 29.7085 105.994 29.4178 105.383 28.9642C104.772 28.5106 104.286 27.9089 103.971 27.2158C103.657 26.5227 103.523 25.761 103.584 25.0022L110.961 -78.236Z" stroke="#7AAAF5" stroke-width="9.0875" stroke-linecap="round" stroke-linejoin="round"/>
<path d="M109.952 -64.2019C128.837 -65.1033 147.451 -59.4391 162.632 -48.1716C177.814 -36.9041 188.626 -20.7283 193.232 -2.39222" stroke="#7AAAF5" stroke-width="9.0875" stroke-linecap="round" stroke-linejoin="round"/>
<path d="M138.936 18.3499C137.428 16.3864 136.399 14.098 135.932 11.6668C135.465 9.23565 135.571 6.72894 136.243 4.34625C136.916 1.96356 138.135 -0.229309 139.804 -2.05774C141.473 -3.88617 143.546 -5.29967 145.857 -6.1857C148.169 -7.07173 150.656 -7.40582 153.119 -7.16137C155.583 -6.91692 157.955 -6.10067 160.048 -4.77762C162.14 -3.45458 163.895 -1.66127 165.172 0.459515C166.45 2.5803 167.214 4.96999 167.405 7.43831" stroke="#7AAAF5" stroke-width="9.0875" stroke-linecap="round" stroke-linejoin="round"/>
<path d="M108.383 -41.8839C110.835 -43.4191 113.659 -44.2565 116.551 -44.306C119.443 -44.3555 122.294 -43.6152 124.797 -42.1648C127.3 -40.7144 129.36 -38.6089 130.755 -36.0748C132.15 -33.5408 132.827 -30.6742 132.714 -27.7837C132.601 -24.8933 131.702 -22.0884 130.113 -19.671C128.524 -17.2536 126.307 -15.3154 123.698 -14.0649C121.09 -12.8144 118.19 -12.299 115.31 -12.5743C112.43 -12.8495 109.681 -13.905 107.356 -15.6269L106.535 -16.2362" stroke="#7AAAF5" stroke-width="9.0875" stroke-linecap="round" stroke-linejoin="round"/>
</g>
<g clip-path="url(#clip15_33_205)">
<path d="M255.782 43.6067C255.238 43.2016 254.792 42.68 254.477 42.0801C254.161 41.4803 253.983 40.8174 253.957 40.1401C253.931 39.4627 254.056 38.7881 254.325 38.1656C254.593 37.5431 254.997 36.9885 255.508 36.5425C268.852 24.6617 293.454 26.299 313.567 41.2267C333.68 56.1545 342.372 79.2275 334.865 95.4411C334.586 96.0588 334.172 96.6063 333.654 97.0433C333.136 97.4804 332.527 97.796 331.871 97.9671C331.215 98.1381 330.529 98.1602 329.864 98.0317C329.198 97.9033 328.57 97.6276 328.024 97.2248L255.782 43.6067Z" stroke="#7AAAF5" stroke-width="9.0875" stroke-linecap="round" stroke-linejoin="round"/>
<path d="M304.017 130.333L298.601 137.63C295.729 141.501 291.436 144.072 286.667 144.778C281.899 145.483 277.046 144.266 273.175 141.393L229.391 108.897C225.521 106.024 222.95 101.732 222.244 96.9633C221.538 92.1949 222.756 87.3416 225.629 83.4708L231.045 76.1736" stroke="#7AAAF5" stroke-width="9.0875" stroke-linecap="round" stroke-linejoin="round"/>
<path d="M219.215 73.0522L242.874 79.2949L255.702 100.132L279.361 106.375L292.188 127.212L315.847 133.454" stroke="#7AAAF5" stroke-width="9.0875" stroke-linecap="round" stroke-linejoin="round"/>
<path d="M233.639 49.8065L328.503 120.214" stroke="#7AAAF5" stroke-width="9.0875" stroke-linecap="round" stroke-linejoin="round"/>
</g>
<g clip-path="url(#clip16_33_205)">
<path d="M433.607 130.319L420.067 148.562" stroke="#7AAAF5" stroke-width="9.0875" stroke-linecap="round" stroke-linejoin="round"/>
<path d="M405.173 168.63L368.615 217.887" stroke="#7AAAF5" stroke-width="9.0875" stroke-linecap="round" stroke-linejoin="round"/>
<path d="M446.377 139.797L433.778 164.397C430.546 168.752 425.716 171.644 420.352 172.438C414.988 173.232 409.528 171.862 405.173 168.63C400.818 165.398 397.926 160.569 397.132 155.204C396.338 149.84 397.708 144.38 400.94 140.025L420.837 120.841" stroke="#7AAAF5" stroke-width="9.0875" stroke-linecap="round" stroke-linejoin="round"/>
<path d="M445.009 229.317L419.468 210.361C419.468 210.361 462.853 163.342 488.336 170.939L423.345 258.506" stroke="#7AAAF5" stroke-width="9.0875" stroke-linecap="round" stroke-linejoin="round"/>
</g>
<g clip-path="url(#clip17_33_205)">
<path d="M531.283 233.723C531.362 232.557 531.893 231.467 532.763 230.686C533.633 229.905 534.774 229.495 535.942 229.542C556.802 229.891 577.029 236.765 593.782 249.199C610.535 261.633 622.972 279.002 629.347 298.867C629.731 299.971 629.669 301.182 629.173 302.241C628.678 303.3 627.789 304.124 626.695 304.537L530.018 341.498C529.309 341.776 528.541 341.869 527.787 341.768C527.032 341.668 526.316 341.377 525.705 340.924C525.093 340.47 524.608 339.868 524.293 339.175C523.978 338.482 523.845 337.72 523.906 336.962L531.283 233.723Z" stroke="#7AAAF5" stroke-width="9.0875" stroke-linecap="round" stroke-linejoin="round"/>
<path d="M530.275 247.758C549.159 246.856 567.773 252.52 582.954 263.788C598.136 275.055 608.948 291.231 613.555 309.567" stroke="#7AAAF5" stroke-width="9.0875" stroke-linecap="round" stroke-linejoin="round"/>
<path d="M559.258 330.309C557.75 328.346 556.722 326.057 556.254 323.626C555.787 321.195 555.893 318.688 556.565 316.306C557.238 313.923 558.457 311.73 560.126 309.902C561.795 308.073 563.868 306.66 566.18 305.774C568.491 304.888 570.978 304.554 573.442 304.798C575.905 305.043 578.278 305.859 580.37 307.182C582.463 308.505 584.217 310.298 585.495 312.419C586.772 314.54 587.536 316.929 587.727 319.398" stroke="#7AAAF5" stroke-width="9.0875" stroke-linecap="round" stroke-linejoin="round"/>
<path d="M528.705 270.076C531.157 268.54 533.981 267.703 536.873 267.653C539.765 267.604 542.616 268.344 545.119 269.795C547.622 271.245 549.682 273.351 551.077 275.885C552.472 278.419 553.149 281.285 553.036 284.176C552.923 287.066 552.024 289.871 550.435 292.289C548.846 294.706 546.629 296.644 544.02 297.895C541.412 299.145 538.512 299.66 535.632 299.385C532.752 299.11 530.003 298.055 527.678 296.333L526.857 295.723" stroke="#7AAAF5" stroke-width="9.0875" stroke-linecap="round" stroke-linejoin="round"/>
</g>
<g clip-path="url(#clip18_33_205)">
<path d="M676.104 355.566C675.56 355.161 675.114 354.639 674.799 354.04C674.483 353.44 674.306 352.777 674.279 352.1C674.253 351.422 674.379 350.748 674.647 350.125C674.915 349.503 675.319 348.948 675.83 348.502C689.174 336.621 713.776 338.258 733.889 353.186C754.002 368.114 762.694 391.187 755.187 407.401C754.908 408.018 754.495 408.566 753.976 409.003C753.458 409.44 752.849 409.756 752.193 409.927C751.537 410.098 750.851 410.12 750.186 409.991C749.52 409.863 748.892 409.587 748.347 409.184L676.104 355.566Z" stroke="#7AAAF5" stroke-width="9.0875" stroke-linecap="round" stroke-linejoin="round"/>
<path d="M724.34 442.293L718.924 449.59C716.051 453.461 711.758 456.032 706.99 456.737C702.221 457.443 697.368 456.225 693.497 453.353L649.714 420.857C645.843 417.984 643.272 413.691 642.566 408.923C641.861 404.154 643.078 399.301 645.951 395.43L651.367 388.133" stroke="#7AAAF5" stroke-width="9.0875" stroke-linecap="round" stroke-linejoin="round"/>
<path d="M639.537 385.012L663.197 391.254L676.024 412.092L699.683 418.334L712.51 439.171L736.169 445.414" stroke="#7AAAF5" stroke-width="9.0875" stroke-linecap="round" stroke-linejoin="round"/>
<path d="M653.961 361.766L748.825 432.174" stroke="#7AAAF5" stroke-width="9.0875" stroke-linecap="round" stroke-linejoin="round"/>
</g>
<g clip-path="url(#clip19_33_205)">
<path d="M402.843 -13.5008L377.302 -32.4567C377.302 -32.4567 420.687 -79.4755 446.17 -71.8789L381.179 15.6882" stroke="#7AAAF5" stroke-width="9.0875" stroke-linecap="round" stroke-linejoin="round"/>
</g>
<g clip-path="url(#clip20_33_205)">
<path d="M489.117 -9.09451C489.196 -10.2611 489.727 -11.3508 490.597 -12.1317C491.467 -12.9126 492.608 -13.323 493.776 -13.2755C514.636 -12.9269 534.863 -6.05298 551.616 6.38086C568.369 18.8147 580.806 36.1839 587.181 56.0489C587.565 57.1533 587.503 58.3639 587.007 59.423C586.512 60.4821 585.623 61.306 584.529 61.7192L487.852 98.6796C487.143 98.9576 486.375 99.0508 485.621 98.9504C484.866 98.85 484.15 98.5593 483.539 98.1057C482.927 97.652 482.442 97.0504 482.127 96.3573C481.812 95.6642 481.679 94.9024 481.74 94.1437L489.117 -9.09451Z" stroke="#7AAAF5" stroke-width="9.0875" stroke-linecap="round" stroke-linejoin="round"/>
<path d="M488.109 4.93957C506.993 4.03816 525.607 9.70235 540.788 20.9698C555.97 32.2373 566.782 48.4132 571.389 66.7493" stroke="#7AAAF5" stroke-width="9.0875" stroke-linecap="round" stroke-linejoin="round"/>
<path d="M517.092 87.4914C515.584 85.5279 514.556 83.2394 514.088 80.8083C513.621 78.3771 513.727 75.8704 514.399 73.4877C515.072 71.105 516.291 68.9122 517.96 67.0837C519.629 65.2553 521.702 63.8418 524.014 62.9558C526.325 62.0697 528.812 61.7357 531.276 61.9801C533.739 62.2246 536.112 63.0408 538.204 64.3639C540.297 65.6869 542.051 67.4802 543.329 69.601C544.606 71.7218 545.37 74.1115 545.561 76.5798" stroke="#7AAAF5" stroke-width="9.0875" stroke-linecap="round" stroke-linejoin="round"/>
<path d="M486.539 27.2576C488.991 25.7224 491.815 24.885 494.707 24.8355C497.599 24.786 500.45 25.5263 502.953 26.9767C505.456 28.4271 507.516 30.5327 508.911 33.0667C510.306 35.6008 510.983 38.4673 510.87 41.3578C510.757 44.2483 509.858 47.0532 508.269 49.4705C506.68 51.8879 504.463 53.8261 501.854 55.0766C499.246 56.3271 496.346 56.8425 493.466 56.5673C490.586 56.292 487.837 55.2366 485.512 53.5146L484.691 52.9053" stroke="#7AAAF5" stroke-width="9.0875" stroke-linecap="round" stroke-linejoin="round"/>
</g>
<g clip-path="url(#clip21_33_205)">
<path d="M633.938 112.748C633.394 112.343 632.948 111.822 632.633 111.222C632.317 110.622 632.14 109.959 632.113 109.282C632.087 108.604 632.213 107.93 632.481 107.307C632.749 106.685 633.153 106.13 633.664 105.684C647.008 93.8032 671.61 95.4405 691.723 110.368C711.836 125.296 720.528 148.369 713.022 164.583C712.742 165.2 712.329 165.748 711.811 166.185C711.292 166.622 710.683 166.938 710.027 167.109C709.371 167.28 708.685 167.302 708.02 167.173C707.354 167.045 706.726 166.769 706.181 166.366L633.938 112.748Z" stroke="#7AAAF5" stroke-width="9.0875" stroke-linecap="round" stroke-linejoin="round"/>
<path d="M682.174 199.475L676.758 206.772C673.885 210.643 669.592 213.214 664.824 213.919C660.055 214.625 655.202 213.407 651.331 210.535L607.548 178.039C603.677 175.166 601.106 170.873 600.4 166.105C599.695 161.336 600.912 156.483 603.785 152.612L609.201 145.315" stroke="#7AAAF5" stroke-width="9.0875" stroke-linecap="round" stroke-linejoin="round"/>
<path d="M597.371 142.194L621.031 148.436L633.858 169.273L657.517 175.516L670.344 196.353L694.003 202.596" stroke="#7AAAF5" stroke-width="9.0875" stroke-linecap="round" stroke-linejoin="round"/>
<path d="M611.795 118.948L706.659 189.356" stroke="#7AAAF5" stroke-width="9.0875" stroke-linecap="round" stroke-linejoin="round"/>
</g>
</g>
<defs>
<clipPath id="clip0_33_205">
<rect width="145.4" height="145.4" fill="white" transform="translate(21.3416 457.359) rotate(36.5825)"/>
</clipPath>
<clipPath id="clip1_33_205">
<rect width="145.4" height="145.4" fill="white" transform="translate(161.449 561.346) rotate(36.5825)"/>
</clipPath>
<clipPath id="clip2_33_205">
<rect width="145.4" height="145.4" fill="white" transform="translate(301.556 665.332) rotate(36.5825)"/>
</clipPath>
<clipPath id="clip3_33_205">
<rect width="145.4" height="145.4" fill="white" transform="translate(-30.5955 199.951) rotate(36.5825)"/>
</clipPath>
<clipPath id="clip4_33_205">
<rect width="145.4" height="145.4" fill="white" transform="translate(109.512 303.937) rotate(36.5825)"/>
</clipPath>
<clipPath id="clip5_33_205">
<rect width="145.4" height="145.4" fill="white" transform="translate(249.62 407.923) rotate(36.5825)"/>
</clipPath>
<clipPath id="clip6_33_205">
<rect width="145.4" height="145.4" fill="white" transform="translate(389.727 511.91) rotate(36.5825)"/>
</clipPath>
<clipPath id="clip7_33_205">
<rect width="145.4" height="145.4" fill="white" transform="translate(529.834 615.896) rotate(36.5825)"/>
</clipPath>
<clipPath id="clip8_33_205">
<rect width="145.4" height="145.4" fill="white" transform="translate(-60.3445 -36) rotate(36.5825)"/>
</clipPath>
<clipPath id="clip9_33_205">
<rect width="145.4" height="145.4" fill="white" transform="translate(79.7627 67.9865) rotate(36.5825)"/>
</clipPath>
<clipPath id="clip10_33_205">
<rect width="145.4" height="145.4" fill="white" transform="translate(219.87 171.973) rotate(36.5825)"/>
</clipPath>
<clipPath id="clip11_33_205">
<rect width="145.4" height="145.4" fill="white" transform="translate(359.978 275.959) rotate(36.5825)"/>
</clipPath>
<clipPath id="clip12_33_205">
<rect width="145.4" height="145.4" fill="white" transform="translate(500.085 379.946) rotate(36.5825)"/>
</clipPath>
<clipPath id="clip13_33_205">
<rect width="145.4" height="145.4" fill="white" transform="translate(640.193 483.932) rotate(36.5825)"/>
</clipPath>
<clipPath id="clip14_33_205">
<rect width="145.4" height="145.4" fill="white" transform="translate(125.913 -120.682) rotate(36.5825)"/>
</clipPath>
<clipPath id="clip15_33_205">
<rect width="145.4" height="145.4" fill="white" transform="translate(266.021 -16.6956) rotate(36.5825)"/>
</clipPath>
<clipPath id="clip16_33_205">
<rect width="145.4" height="145.4" fill="white" transform="translate(406.128 87.291) rotate(36.5825)"/>
</clipPath>
<clipPath id="clip17_33_205">
<rect width="145.4" height="145.4" fill="white" transform="translate(546.235 191.278) rotate(36.5825)"/>
</clipPath>
<clipPath id="clip18_33_205">
<rect width="145.4" height="145.4" fill="white" transform="translate(686.343 295.264) rotate(36.5825)"/>
</clipPath>
<clipPath id="clip19_33_205">
<rect width="145.4" height="145.4" fill="white" transform="translate(363.962 -155.527) rotate(36.5825)"/>
</clipPath>
<clipPath id="clip20_33_205">
<rect width="145.4" height="145.4" fill="white" transform="translate(504.069 -51.5405) rotate(36.5825)"/>
</clipPath>
<clipPath id="clip21_33_205">
<rect width="145.4" height="145.4" fill="white" transform="translate(644.177 52.4459) rotate(36.5825)"/>
</clipPath>
</defs>
</svg>
